name analog
datacolumns 19
datarows 42
range 0.0 0.0205
endheader
time	ground_force_vx	ground_force_vy	ground_force_vz	ground_force_px	ground_force_py	ground_force_pz	l_ground_force_vx	l_ground_force_vy	l_ground_force_vz	l_ground_force_px	l_ground_force_py	l_ground_force_pz	ground_torque_x	ground_torque_y	ground_torque_z	l_ground_torque_x	l_ground_torque_y	l_ground_torque_z
0.0	-0.0	-0.0	-0.0	-6.779998779296875	7.041301727294922	-111.43853759765624	4.518560886383057	-8.85566520690918	-391.4213562011719	-0.0	-0.0	-0.0	-0.0	-0.0	-0.0	131596.5	-27926.154296875	995.6607666015624
0.0005	-0.0	-0.0	-0.0	-6.911065101623535	7.35051155090332	-112.75813293457033	4.559608936309815	-8.625980377197266	-391.3753356933594	-0.0	-0.0	-0.0	-0.0	-0.0	-0.0	131618.953125	-28067.5625	993.7943725585938
0.001	-0.0	-0.0	-0.0	-6.696572780609131	7.504901885986328	-110.26325988769533	4.600396633148193	-8.661779403686523	-392.0725402832031	-0.0	-0.0	-0.0	-0.0	-0.0	-0.0	131863.1875	-28034.078125	958.2621459960938
0.0015	-0.0	-0.0	-0.0	-6.536177635192871	7.397823333740234	-112.28733825683594	4.654052257537842	-8.461675643920898	-392.9996337890625	-0.0	-0.0	-0.0	-0.0	-0.0	-0.0	131738.28125	-28104.662109375	1031.4404296875
0.002	-0.0	-0.0	-0.0	-6.388064384460449	7.391487121582031	-113.11215209960938	4.500363349914551	-7.972733497619629	-391.5198974609375	-0.0	-0.0	-0.0	-0.0	-0.0	-0.0	131644.0	-28314.947265625	998.3499145507812
0.0025	-0.0	-0.0	-0.0	-5.839993953704834	7.308692932128906	-112.63831329345705	4.387642860412598	-8.268653869628906	-390.98345947265625	-0.0	-0.0	-0.0	-0.0	-0.0	-0.0	131731.140625	-28473.671875	979.9335327148438
0.003	-0.0	-0.0	-0.0	-5.668308258056641	7.507579326629639	-112.8273696899414	4.483581066131592	-8.013358116149902	-390.446044921875	-0.0	-0.0	-0.0	-0.0	-0.0	-0.0	132125.1875	-28553.583984375	1163.6177978515625
0.0035	-0.0	-0.0	-0.0	-5.740756511688232	8.08678913116455	-114.458740234375	4.725768089294434	-8.101604461669922	-391.0196228027344	-0.0	-0.0	-0.0	-0.0	-0.0	-0.0	131752.1875	-28857.625	1039.5445556640625
0.004	-0.0	-0.0	-0.0	-5.9287824630737305	8.055161476135254	-115.17345428466795	5.0323567390441895	-7.708038806915283	-391.6842346191406	-0.0	-0.0	-0.0	-0.0	-0.0	-0.0	132007.015625	-28851.193359375	1088.463623046875
0.0045000000000000005	-0.0	-0.0	-0.0	-5.9528656005859375	8.443171501159668	-115.55513763427734	5.008044242858887	-7.531019687652588	-391.6527404785156	-0.0	-0.0	-0.0	-0.0	-0.0	-0.0	131978.9375	-28990.07421875	1193.5625
0.005	-0.0	-0.0	-0.0	-6.001413822174072	8.815888404846191	-117.3201904296875	4.952011585235596	-7.314976692199707	-391.2411193847656	-0.0	-0.0	-0.0	-0.0	-0.0	-0.0	131642.6875	-29194.228515625	1199.2000732421875
0.0055	-0.0	-0.0	-0.0	-6.195992946624756	9.091300964355469	-117.15924835205078	5.426966190338135	-7.26663875579834	-390.4474182128906	-0.0	-0.0	-0.0	-0.0	-0.0	-0.0	131315.828125	-29258.33984375	1304.3028564453125
0.006	-0.0	-0.0	-0.0	-6.083486080169678	9.463671684265137	-116.9365463256836	5.998821258544922	-6.904401302337647	-390.09857177734375	-0.0	-0.0	-0.0	-0.0	-0.0	-0.0	131457.375	-29750.5078125	1410.0384521484375
0.006500000000000001	-0.0	-0.0	-0.0	-6.131014347076416	9.797504425048828	-120.20531463623048	6.283272743225098	-6.682195663452148	-389.0880126953125	-0.0	-0.0	-0.0	-0.0	-0.0	-0.0	131360.171875	-29893.603515625	1571.8511962890625
0.007	-0.0	-0.0	-0.0	-6.48145055770874	9.893474578857422	-119.63066864013672	6.352993011474609	-6.864620685577393	-388.256591796875	-0.0	-0.0	-0.0	-0.0	-0.0	-0.0	131248.78125	-30248.90625	1558.53076171875
0.0075	-0.0	-0.0	-0.0	-6.696589469909668	9.98260498046875	-120.17880249023438	6.707458972930908	-6.329794883728027	-387.8493957519531	-0.0	-0.0	-0.0	-0.0	-0.0	-0.0	131002.3515625	-30546.060546875	1659.417236328125
0.008	-0.0	-0.0	-0.0	-6.442511081695557	10.373495101928713	-121.68964385986328	7.171010494232178	-6.432983875274658	-387.2890930175781	-0.0	-0.0	-0.0	-0.0	-0.0	-0.0	131015.046875	-30669.208984375	1737.11474609375
0.0085	-0.0	-0.0	-0.0	-6.041515350341797	10.878728866577148	-121.0820770263672	7.0720696449279785	-6.172102451324463	-387.9638671875	-0.0	-0.0	-0.0	-0.0	-0.0	-0.0	131001.1015625	-30723.232421875	1809.47021484375
0.009000000000000001	-0.0	-0.0	-0.0	-6.616175651550293	10.838796615600586	-120.47502899169922	7.490688323974609	-5.953006267547607	-385.6168518066406	-0.0	-0.0	-0.0	-0.0	-0.0	-0.0	130638.71875	-31091.67578125	1885.6851806640625
0.0095	-0.0	-0.0	-0.0	-6.448090076446533	11.112505912780762	-122.10154724121094	7.767690658569336	-5.867919445037842	-385.8673706054688	-0.0	-0.0	-0.0	-0.0	-0.0	-0.0	130380.4453125	-31258.060546875	1996.183349609375
0.01	-0.0	-0.0	-0.0	-6.651599884033203	11.736883163452148	-122.65245056152344	7.870256423950195	-5.652587890625	-385.2571411132813	-0.0	-0.0	-0.0	-0.0	-0.0	-0.0	130244.25	-31578.021484375	2042.6195068359373
0.0105	-0.0	-0.0	-0.0	-6.933347225189209	11.957453727722168	-122.45417785644533	8.834465980529785	-5.652587890625	-383.9149475097656	-0.0	-0.0	-0.0	-0.0	-0.0	-0.0	130195.9375	-31724.86328125	2199.986328125
0.011	-0.0	-0.0	-0.0	-7.036257266998291	11.826822280883787	-121.493896484375	8.42752456665039	-5.3125410079956055	-384.2180786132813	-0.0	-0.0	-0.0	-0.0	-0.0	-0.0	130036.5625	-31788.8828125	2237.852783203125
0.0115	-0.0	-0.0	-0.0	-7.571217060089111	12.019071578979492	-121.94692993164062	8.871078491210938	-5.059438228607178	-384.9158020019531	-0.0	-0.0	-0.0	-0.0	-0.0	-0.0	130362.015625	-32129.59375	2318.819091796875
0.012	-0.0	-0.0	-0.0	-7.226051330566406	12.580734252929688	-121.14071655273438	9.15009880065918	-4.66821813583374	-384.9153137207031	-0.0	-0.0	-0.0	-0.0	-0.0	-0.0	130350.0078125	-32554.443359375	2361.5419921875
0.0125	-0.0	-0.0	-0.0	-7.710591793060303	12.24842643737793	-123.0625228881836	8.94713306427002	-4.920773983001709	-384.5157165527344	-0.0	-0.0	-0.0	-0.0	-0.0	-0.0	130552.171875	-32657.181640625	2323.15380859375
0.013000000000000001	-0.0	-0.0	-0.0	-7.773834705352783	12.669026374816896	-121.2909698486328	9.314632415771484	-4.390773296356201	-385.2632751464844	-0.0	-0.0	-0.0	-0.0	-0.0	-0.0	130966.296875	-32719.767578125	2408.296630859375
0.0135	-0.0	-0.0	-0.0	-7.748587131500244	13.242202758789062	-121.3929672241211	9.377859115600586	-4.188696384429932	-385.5636901855469	-0.0	-0.0	-0.0	-0.0	-0.0	-0.0	130899.5546875	-32990.9765625	2433.95751953125
0.014	-0.0	-0.0	-0.0	-7.660191535949707	12.847843170166016	-121.7435302734375	9.618352890014648	-3.797832489013672	-385.46337890625	-0.0	-0.0	-0.0	-0.0	-0.0	-0.0	131094.046875	-33276.765625	2421.232421875
0.0145	-0.0	-0.0	-0.0	-8.398097038269043	13.08885669708252	-120.0324478149414	9.616294860839844	-3.784113645553589	-387.5040893554688	-0.0	-0.0	-0.0	-0.0	-0.0	-0.0	131313.21875	-33591.90234375	2489.73681640625
0.015	-0.0	-0.0	-0.0	-8.564208984375	12.860462188720703	-119.52445220947266	9.881771087646484	-3.305058717727661	-387.8159790039063	-0.0	-0.0	-0.0	-0.0	-0.0	-0.0	131474.859375	-33710.38671875	2718.09521484375
0.0155	-0.0	-0.0	-0.0	-8.488919258117676	12.41488552093506	-118.31527709960938	9.695246696472168	-3.36757230758667	-388.1103210449219	-0.0	-0.0	-0.0	-0.0	-0.0	-0.0	131968.40625	-34067.80859375	2658.568359375
0.016	-0.0	-0.0	-0.0	-8.932727813720703	12.696494102478027	-118.06441497802734	10.42742156982422	-3.4188268184661865	-388.9107666015625	-0.0	-0.0	-0.0	-0.0	-0.0	-0.0	131944.25	-34293.48828125	2625.621337890625
0.0165	-0.0	-0.0	-0.0	-8.486442565917969	12.972674369812012	-117.50629425048828	9.835914611816406	-3.6321232318878174	-390.1630859375	-0.0	-0.0	-0.0	-0.0	-0.0	-0.0	132438.453125	-34342.71484375	2600.49951171875
0.017	-0.0	-0.0	-0.0	-8.549444198608398	12.49300765991211	-114.98929595947266	9.972357749938965	-3.470412254333496	-391.0074462890625	-0.0	-0.0	-0.0	-0.0	-0.0	-0.0	132352.9375	-34201.48046875	2667.286865234375
0.0175	-0.0	-0.0	-0.0	-8.248434066772461	12.14069652557373	-115.1209487915039	10.086987495422363	-3.5434060096740723	-392.0972900390625	-0.0	-0.0	-0.0	-0.0	-0.0	-0.0	132679.90625	-34560.85546875	2751.15283203125
0.018000000000000002	-0.0	-0.0	-0.0	-8.255123138427734	12.41523551940918	-112.76786041259766	9.909488677978516	-3.595184564590454	-393.0011901855469	-0.0	-0.0	-0.0	-0.0	-0.0	-0.0	132928.15625	-34638.8515625	2726.4921875
0.0185	-0.0	-0.0	-0.0	-8.317829132080078	11.9222412109375	-110.58738708496094	10.02431869506836	-3.667504072189331	-393.310791015625	-0.0	-0.0	-0.0	-0.0	-0.0	-0.0	133250.578125	-35015.8671875	2752.79833984375
0.019	-0.0	-0.0	-0.0	-7.981865406036377	11.60279941558838	-110.23333740234376	9.945558547973633	-3.5427746772766118	-394.43798828125	-0.0	-0.0	-0.0	-0.0	-0.0	-0.0	133850.59375	-35306.82421875	2827.584716796875
0.0195	-0.0	-0.0	-0.0	-8.134321212768555	11.068320274353027	-108.17735290527344	10.40549087524414	-3.320328712463379	-396.1564025878906	-0.0	-0.0	-0.0	-0.0	-0.0	-0.0	134287.234375	-35408.04296875	3056.40087890625
0.02	-0.0	-0.0	-0.0	-7.824119091033935	10.655709266662598	-105.5612335205078	10.40555191040039	-3.762059450149536	-398.315673828125	-0.0	-0.0	-0.0	-0.0	-0.0	-0.0	134914.765625	-35844.5546875	2952.75537109375
0.0205	-0.0	-0.0	-0.0	-7.814280986785889	10.187325477600098	-104.18807983398438	10.21889877319336	-3.983744144439697	-399.53363037109375	-0.0	-0.0	-0.0	-0.0	-0.0	-0.0	135377.46875	-35684.9921875	2990.36083984375
